<?xml version="1.0" encoding="UTF-8" standalone="no"?>
<svg
   version="1.1"
   id="Layer_1"
   x="0px"
   y="0px"
   width="675"
   height="675"
   viewBox="0 0 674.99999 675"
   enable-background="new 0 0 702.643 1000"
   xml:space="preserve"
   sodipodi:docname="fairtris.svg"
   inkscape:version="1.3.2 (091e20e, 2023-11-25, custom)"
   inkscape:export-filename="16.png"
   inkscape:export-xdpi="2.2755556"
   inkscape:export-ydpi="2.2755556"
   xmlns:inkscape="http://www.inkscape.org/namespaces/inkscape"
   xmlns:sodipodi="http://sodipodi.sourceforge.net/DTD/sodipodi-0.dtd"
   xmlns:xlink="http://www.w3.org/1999/xlink"
   xmlns="http://www.w3.org/2000/svg"
   xmlns:svg="http://www.w3.org/2000/svg"
   xmlns:rdf="http://www.w3.org/1999/02/22-rdf-syntax-ns#"
   xmlns:cc="http://creativecommons.org/ns#"
   xmlns:dc="http://purl.org/dc/elements/1.1/"><metadata
   id="metadata99"><rdf:RDF><cc:Work
       rdf:about=""><dc:format>image/svg+xml</dc:format><dc:type
         rdf:resource="http://purl.org/dc/dcmitype/StillImage" /></cc:Work></rdf:RDF></metadata><defs
   id="defs97"><linearGradient
   id="linearGradient14"
   inkscape:collect="always"><stop
     style="stop-color:#f8f0db;stop-opacity:1;"
     offset="0"
     id="stop7" /><stop
     style="stop-color:#b88718;stop-opacity:1;"
     offset="0.17491394"
     id="stop8" /><stop
     style="stop-color:#ffe3bd;stop-opacity:1;"
     offset="0.32426953"
     id="stop9" /><stop
     style="stop-color:#714500;stop-opacity:1;"
     offset="0.47256798"
     id="stop10" /><stop
     style="stop-color:#4e3306;stop-opacity:1;"
     offset="0.50837243"
     id="stop11" /><stop
     style="stop-color:#a2803b;stop-opacity:1;"
     offset="0.58895564"
     id="stop12" /><stop
     style="stop-color:#dbbf8d;stop-opacity:1;"
     offset="0.6199525"
     id="stop16" /><stop
     style="stop-color:#f7deb5;stop-opacity:1;"
     offset="1"
     id="stop14" /></linearGradient><inkscape:path-effect
   effect="offset"
   id="path-effect7"
   is_visible="true"
   lpeversion="1.2"
   linejoin_type="miter"
   unit="mm"
   offset="-1.2774414"
   miter_limit="4"
   attempt_force_join="false"
   update_on_knot_move="true" /><rect
   x="525.91064"
   y="-276.21359"
   width="1020.8854"
   height="357.97281"
   id="rect1719" /><rect
   x="660.70288"
   y="-256.3262"
   width="996.57861"
   height="342.50485"
   id="rect1713" /><rect
   x="775"
   y="-89.0625"
   width="692.1875"
   height="218.75"
   id="rect1697" />
	
	
	
	
	
	
	
	
	
	
	
	
	
	
	
	
	
	
	
	
	
	
	
	
	
	
	
	
	
	
	
	
	
	
	
	
	
	
	
	
	
	
	
	
	
<linearGradient
   inkscape:collect="always"
   xlink:href="#linearGradient14"
   id="linearGradient7"
   x1="81.316628"
   y1="7.9882398"
   x2="636.1098"
   y2="641.55591"
   gradientUnits="userSpaceOnUse" /></defs><sodipodi:namedview
   pagecolor="#4d4d4d"
   bordercolor="#666666"
   borderopacity="1"
   objecttolerance="10"
   gridtolerance="10"
   guidetolerance="10"
   inkscape:pageopacity="0"
   inkscape:pageshadow="2"
   inkscape:window-width="1280"
   inkscape:window-height="737"
   id="namedview95"
   showgrid="false"
   showborder="false"
   inkscape:zoom="0.70710678"
   inkscape:cx="330.21887"
   inkscape:cy="350.72496"
   inkscape:window-x="1272"
   inkscape:window-y="32"
   inkscape:window-maximized="1"
   inkscape:current-layer="Layer_1"
   fit-margin-top="0"
   fit-margin-left="0"
   fit-margin-right="0"
   fit-margin-bottom="0"
   inkscape:document-rotation="0"
   inkscape:showpageshadow="2"
   inkscape:pagecheckerboard="true"
   inkscape:deskcolor="#000000" />

<text
   xml:space="preserve"
   id="text1711"
   style="font-style:normal;font-variant:normal;font-weight:normal;font-stretch:normal;font-size:40px;line-height:1.25;font-family:'Modern Tetris';-inkscape-font-specification:'Modern Tetris';white-space:pre;shape-inside:url(#rect1713);display:inline;fill:#000000;fill-opacity:1;stroke:none"
   transform="translate(-2.4511709,-100.40412)" /><g
   id="g27"><path
     d="M 0,0 V 675 H 675 V 0 Z M 47.966797,42.046875 H 627.05273 c 5.75929,0 10.44727,4.693092 10.44727,10.46875 V 251.57422 c 0,5.77661 -10.44922,10.46875 -10.44922,10.46875 H 257.63477 v 72.96289 h 200.70117 c 5.76409,0 10.45312,4.70816 10.45312,10.51367 v 117.85156 c 0,5.7747 -4.69,10.48047 -10.45312,10.48047 H 257.63477 v 148.64453 c 0,5.76411 -4.70815,10.45703 -10.51368,10.45703 H 47.980469 C 42.205777,632.95312 37.5,628.25923 37.5,622.49609 V 262.04297 256.39648 52.515625 c 0,-5.775658 4.692105,-10.46875 10.466797,-10.46875 z"
     style="opacity:0.995;fill:#231f20;stroke-width:12.1175;fill-opacity:1"
     id="path19" /><g
     id="path55"
     style="fill:#231f20;fill-opacity:1"><path
       style="color:#000000;fill:#231f20;-inkscape-stroke:none;fill-opacity:1"
       d="M 47.966797,42.046875 C 42.192105,42.046875 37.5,46.739967 37.5,52.515625 v 203.880855 5.64649 360.45312 c 0,5.76314 4.705777,10.45703 10.480469,10.45703 H 247.12109 c 5.80553,0 10.51368,-4.69292 10.51368,-10.45703 V 473.85156 h 200.70117 c 5.76312,0 10.45312,-4.70577 10.45312,-10.48047 V 345.51953 c 0,-5.80551 -4.68903,-10.51367 -10.45312,-10.51367 H 257.63477 v -72.96289 h 369.41601 c 0,0 10.44922,-4.69214 10.44922,-10.46875 V 52.515625 c 0,-5.775658 -4.68798,-10.46875 -10.44727,-10.46875 z m 0,9.810547 H 627.05273 c 0.35165,0 0.625,0.322933 0.625,0.658203 V 251.57422 c 0,0.36802 -0.625,0.64258 -0.625,0.64258 H 247.82617 c 3e-5,30.46913 1e-5,61.66383 0,92.59765 106.61549,-1.4e-4 92.27257,1.2e-4 210.50781,0 0.33913,0 0.64258,0.32336 0.64258,0.68946 v 117.86718 c 0,0.35165 -0.30346,0.67188 -0.64258,0.67188 H 247.82617 c -3e-5,53.16112 -6e-5,106.37641 0,158.45312 0,0.33912 -0.32335,0.64453 -0.68945,0.64453 H 47.982422 c -0.351646,0 -0.673828,-0.30541 -0.673828,-0.64453 V 252.2168 52.515625 c 10e-7,-0.33624 0.337386,-0.658203 0.658203,-0.658203 z"
       id="path23" /><path
       style="color:#000000;fill:#231f20;-inkscape-stroke:none;fill-opacity:1"
       d="M 47.966797,32.046875 C 36.774116,32.046875 27.5,41.324024 27.5,52.515625 v 203.880855 5.64649 360.45312 c 0,11.20667 9.286867,20.45703 20.480469,20.45703 H 247.12109 c 11.19455,0 20.51368,-9.24757 20.51368,-20.45703 V 483.85156 h 190.70117 c 11.20665,0 20.45312,-9.29135 20.45312,-20.48047 V 345.51953 c 0,-11.19007 -9.24365,-20.51367 -20.45312,-20.51367 H 267.63477 v -52.96289 h 361.55859 l 1.95312,-0.87695 c 0,0 3.41239,-1.49359 7.00196,-4.09766 3.58957,-2.60407 9.35156,-6.57623 9.35156,-15.49414 V 52.515625 c 0,-11.18684 -9.2555,-20.46875 -20.44727,-20.46875 z m 9.341797,29.810547 H 617.67773 V 242.2168 H 237.82617 v 10 c 3e-5,30.46909 1e-5,61.66386 0,92.59765 v 10 h 10 c 101.87614,-1.3e-4 98.95499,9e-5 201.15039,0 v 99.22852 H 237.82617 v 10 c -3e-5,50.0223 -4e-5,99.97312 0,149.09765 H 57.308594 V 252.2168 Z"
       id="path24" /></g><path
     d="m 47.966797,51.857422 c -0.320817,0 -0.658202,0.321963 -0.658203,0.658203 V 252.2168 622.49609 c 0,0.33912 0.322182,0.64453 0.673828,0.64453 H 247.13672 c 0.3661,0 0.68945,-0.30541 0.68945,-0.64453 -6e-5,-52.07671 -3e-5,-105.292 0,-158.45312 h 210.50781 c 0.33912,0 0.64258,-0.32023 0.64258,-0.67188 V 345.50391 c 0,-0.3661 -0.30345,-0.68946 -0.64258,-0.68946 -118.23524,1.2e-4 -103.89232,-1.4e-4 -210.50781,0 1e-5,-30.93382 3e-5,-62.12852 0,-92.59765 h 379.22656 c 0,0 0.625,-0.27456 0.625,-0.64258 V 52.515625 c 0,-0.33527 -0.27335,-0.658203 -0.625,-0.658203 z"
     style="opacity:0.995;fill:#231f20;stroke-width:12.1175;fill-opacity:1"
     id="path21" /></g><path
   id="path20"
   style="fill:url(#linearGradient7);fill-opacity:1;stroke:#000000;stroke-width:0.048"
   d="M 47.966797 42.046875 C 42.192111 42.046875 37.5 46.739973 37.5 52.515625 L 37.5 256.39648 L 37.5 262.04297 L 37.5 622.49609 C 37.5 628.25923 42.205783 632.95312 47.980469 632.95312 L 247.12109 632.95312 C 252.92662 632.95312 257.63477 628.2602 257.63477 622.49609 L 257.63477 473.85156 L 458.33594 473.85156 C 464.09905 473.85156 468.78906 469.14579 468.78906 463.37109 L 468.78906 345.51953 C 468.78906 339.71403 464.10002 335.00586 458.33594 335.00586 L 257.63477 335.00586 L 257.63477 262.04297 L 627.05078 262.04297 C 627.05078 262.04297 637.5 257.35082 637.5 251.57422 L 637.5 52.515625 C 637.5 46.739973 632.81202 42.046875 627.05273 42.046875 L 47.966797 42.046875 z M 47.966797 51.857422 L 627.05273 51.857422 C 627.40438 51.857422 627.67773 52.180355 627.67773 52.515625 L 627.67773 251.57422 C 627.67773 251.94224 627.05273 252.2168 627.05273 252.2168 L 247.82617 252.2168 C 247.8262 282.6859 247.82618 313.88066 247.82617 344.81445 C 354.44156 344.81431 340.09886 344.81457 458.33398 344.81445 C 458.67311 344.81445 458.97656 345.13781 458.97656 345.50391 L 458.97656 463.37109 C 458.97656 463.72274 458.6731 464.04297 458.33398 464.04297 L 247.82617 464.04297 C 247.82614 517.20404 247.82611 570.41944 247.82617 622.49609 C 247.82617 622.83521 247.50282 623.14062 247.13672 623.14062 L 47.982422 623.14062 C 47.630776 623.14062 47.308594 622.83521 47.308594 622.49609 L 47.308594 252.2168 L 47.308594 52.515625 C 47.308595 52.179385 47.64598 51.857422 47.966797 51.857422 z M 57.730469 63.347656 L 57.730469 243.50586 L 83.03125 243.50586 L 83.03125 161.61523 L 114.6582 161.61523 L 127.30859 128.85938 L 83.03125 128.85938 L 83.03125 96.103516 L 127.30859 96.103516 L 139.95898 63.347656 L 57.730469 63.347656 z M 161.76367 63.347656 L 92.185547 243.50586 L 123.81055 243.50586 L 136.46289 210.75 L 187.06445 210.75 L 199.71484 243.50586 L 231.3418 243.50586 L 161.76367 63.347656 z M 546.16016 63.712891 L 546.16016 88.417969 L 546.20703 88.525391 L 546.20703 89.517578 C 546.20703 90.191003 546.23529 92.331361 546.24609 93.355469 L 546.24609 93.919922 C 546.25849 97.76972 547.81641 101.60592 547.81641 101.63672 L 588.63867 201.15039 L 588.83789 201.60938 L 588.86133 201.77734 C 588.97112 202.06733 589.05958 202.37194 589.14648 202.64844 C 589.55292 204.19183 589.39048 205.94838 588.6875 207.46094 C 587.947 209.06503 586.67583 210.22612 585.19336 210.62305 L 584.9082 210.68359 L 584.60156 210.68359 L 556.39648 210.68359 C 555.11262 210.68359 553.77994 210.65307 553.06445 210.63867 L 552.54492 210.62305 C 549.86425 210.62305 547.56671 208.63732 546.18555 207.32227 L 546.18555 207.61328 L 546.16211 208.19531 L 546.125 208.33203 L 546.125 242.4668 L 546.17383 242.4668 L 546.47266 242.55859 C 546.53419 242.57499 546.59474 242.57422 546.68164 242.57422 C 546.83118 242.57422 546.97828 242.57544 547.11523 242.58984 L 547.22266 242.55859 L 547.50781 242.55859 C 547.50781 242.55859 584.31914 242.49682 603.80469 242.48242 L 616.83008 242.48242 L 616.83008 241.16797 L 616.83008 240.9707 L 616.85352 240.77148 L 616.85352 240.66406 L 616.85352 240.52734 C 616.85352 240.37512 616.86719 210.30266 616.86719 210.22656 L 616.9043 208.79102 C 616.79451 198.32449 615.38558 194.94806 614.34766 192.50195 C 614.18736 192.05878 614.00192 191.67884 613.91602 191.40234 L 613.45898 190.39453 L 577.93359 103.42383 L 574.89453 96.060547 L 574.68555 95.556641 L 574.67188 95.433594 C 574.56063 95.128191 574.45214 94.791793 574.40234 94.5625 C 573.96865 92.943003 574.19094 91.033053 574.98047 89.519531 C 575.81982 87.885582 577.16831 86.801137 578.74805 86.541016 L 578.93164 86.509766 L 579.11719 86.509766 L 585.26562 86.496094 L 601.06055 86.496094 C 603.66649 86.632899 605.6168 87.930758 606.86328 90.298828 L 607.48242 88.466797 L 607.7168 87.748047 L 607.80273 87.671875 L 614.76562 66.494141 L 615.19922 65.134766 L 615.28516 64.951172 L 615.28516 64.935547 L 615.69336 63.712891 L 548.9375 63.712891 L 547.41992 63.712891 L 546.16016 63.712891 z M 510.51367 63.714844 L 510.51367 95.496094 L 536.70508 95.496094 L 536.70508 63.714844 L 510.51367 63.714844 z M 247.92578 64.171875 L 247.92578 243.0332 L 274.14062 243.0332 L 274.14062 86.509766 L 274.14062 83.056641 L 276.91992 83.056641 L 294.35547 83.056641 L 299.20703 83.056641 L 296.75977 88.236328 L 281.68555 120.32422 L 281.63477 120.44531 L 331.94141 243.0332 L 352.9375 243.0332 L 363.83789 243.0332 L 379.1543 243.0332 L 379.1543 99.421875 L 379.1543 95.96875 L 381.94336 95.96875 L 403.50391 95.96875 L 403.50391 64.171875 L 328.5625 64.171875 L 328.5625 95.96875 L 350.14648 95.96875 L 352.9375 95.96875 L 352.9375 99.421875 L 352.9375 216.4707 L 314.18555 122.03516 L 300.4668 122.03516 L 295.57617 122.03516 L 298.05859 116.82422 L 323.17578 64.171875 L 247.92578 64.171875 z M 413.2832 64.171875 L 413.2832 243.0332 L 439.5 243.0332 L 439.5 86.509766 L 439.5 83.056641 L 442.2793 83.056641 L 459.71484 83.056641 L 464.56641 83.056641 L 462.11914 88.236328 L 447.04492 120.32422 L 446.99414 120.44531 L 497.30078 243.0332 L 529.19727 243.0332 L 479.54492 122.03516 L 465.82422 122.03516 L 460.93555 122.03516 L 463.41797 116.82422 L 488.5332 64.171875 L 413.2832 64.171875 z M 213.60742 64.1875 L 213.60742 95.96875 L 238.64062 95.96875 L 238.64062 64.1875 L 213.60742 64.1875 z M 510.51367 108.31445 L 510.51367 172.55078 C 510.5378 172.62689 510.58684 172.71674 510.64844 172.85547 L 510.69922 172.97852 L 510.76172 173.09961 L 536.70312 235.69531 L 536.70312 108.31445 L 510.51367 108.31445 z M 536.70312 235.69531 L 536.70312 235.69922 L 536.70508 235.69922 L 536.70312 235.69531 z M 213.60938 108.78711 L 213.60938 173.02344 C 213.63239 173.09955 213.67968 173.18939 213.73828 173.32812 L 213.78516 173.45117 L 213.8457 173.57227 L 238.64062 236.17188 L 238.64062 108.78711 L 213.60938 108.78711 z M 161.76367 145.23828 L 174.41406 177.99414 L 149.11328 177.99414 L 161.76367 145.23828 z M 148.73633 366.12305 L 148.73633 454.77539 L 169.11914 454.77539 L 169.11914 366.12305 L 148.73633 366.12305 z M 310.96875 383.11914 L 310.96875 405.81055 L 265.54102 405.81055 L 265.43359 426.05469 L 331 426.11523 L 331.10547 383.11914 L 310.96875 383.11914 z M 380.76953 383.17969 L 380.76953 405.94727 L 358.00391 405.94727 L 358.00391 426.05469 L 423.62891 426.05469 L 423.62891 405.94727 L 400.87695 405.94727 L 400.87695 383.17969 L 380.76953 383.17969 z M 80.666016 456.82422 L 80.666016 479.51367 L 57.884766 479.51367 L 57.884766 522.49219 L 78.113281 522.49219 L 78.113281 499.71094 L 100.75781 499.71094 L 100.75781 456.82422 L 80.666016 456.82422 z M 103.32617 479.65039 L 103.32617 522.52344 L 125.98438 522.52344 L 125.98438 545.30664 L 146.2168 545.30664 L 146.2168 502.32422 L 123.43359 502.32422 L 123.43359 479.65039 L 103.32617 479.65039 z M 194.30078 479.65039 L 194.30078 522.52344 L 216.94531 522.52344 L 216.94531 545.30664 L 237.17578 545.30664 L 237.17578 502.32422 L 214.39258 502.32422 L 214.39258 479.65039 L 194.30078 479.65039 z M 171.56445 502.30859 L 171.56445 567.93555 L 191.67383 567.93555 L 191.67383 545.16797 L 214.4375 545.16797 L 214.4375 525.07617 L 191.67383 525.07617 L 191.67383 502.30859 L 171.56445 502.30859 z M 80.605469 502.35547 L 80.605469 567.98047 L 100.71289 567.98047 L 100.71289 545.22852 L 123.47852 545.22852 L 123.47852 525.12109 L 100.71289 525.12109 L 100.71289 502.35547 L 80.605469 502.35547 z M 57.853516 524.78516 L 57.853516 613.4375 L 78.083984 613.4375 L 78.083984 524.78516 L 57.853516 524.78516 z M 237.28125 547.70312 L 217.03711 547.81055 L 217.03711 593.23828 L 194.3457 593.23828 L 194.3457 613.375 L 237.34375 613.27148 L 237.28125 547.70312 z M 103.38672 547.81055 L 103.38672 567.95117 L 126.0625 567.95117 L 126.0625 613.375 L 146.19922 613.375 L 146.26172 547.81055 L 103.38672 547.81055 z M 194.36328 547.8418 L 194.36328 570.53125 L 171.58008 570.53125 L 171.58008 613.51367 L 191.81055 613.51367 L 191.81055 590.73242 L 214.46875 590.73242 L 214.46875 547.8418 L 194.36328 547.8418 z M 80.619141 570.51758 L 80.619141 613.46875 L 123.57031 613.46875 L 123.57031 570.51758 L 80.619141 570.51758 z " /></svg>
