<?xml version="1.0" encoding="UTF-8" standalone="no"?>
<svg
   version="1.1"
   id="Layer_1"
   x="0px"
   y="0px"
   width="675"
   height="675"
   viewBox="0 0 674.99999 675"
   enable-background="new 0 0 702.643 1000"
   xml:space="preserve"
   sodipodi:docname="fairtris.svg"
   inkscape:version="1.3.2 (091e20e, 2023-11-25, custom)"
   inkscape:export-filename="256.png"
   inkscape:export-xdpi="36.41"
   inkscape:export-ydpi="36.41"
   xmlns:inkscape="http://www.inkscape.org/namespaces/inkscape"
   xmlns:sodipodi="http://sodipodi.sourceforge.net/DTD/sodipodi-0.dtd"
   xmlns:xlink="http://www.w3.org/1999/xlink"
   xmlns="http://www.w3.org/2000/svg"
   xmlns:svg="http://www.w3.org/2000/svg"
   xmlns:rdf="http://www.w3.org/1999/02/22-rdf-syntax-ns#"
   xmlns:cc="http://creativecommons.org/ns#"
   xmlns:dc="http://purl.org/dc/elements/1.1/"><metadata
   id="metadata99"><rdf:RDF><cc:Work
       rdf:about=""><dc:format>image/svg+xml</dc:format><dc:type
         rdf:resource="http://purl.org/dc/dcmitype/StillImage" /></cc:Work></rdf:RDF></metadata><defs
   id="defs97"><inkscape:path-effect
   effect="offset"
   id="path-effect7"
   is_visible="true"
   lpeversion="1.2"
   linejoin_type="miter"
   unit="mm"
   offset="-1.2774414"
   miter_limit="4"
   attempt_force_join="false"
   update_on_knot_move="true" /><linearGradient
   id="linearGradient1"
   inkscape:collect="always"><stop
     style="stop-color:#f3e3bd;stop-opacity:1;"
     offset="0"
     id="stop1" /><stop
     style="stop-color:#d6a63d;stop-opacity:1;"
     offset="0.15887851"
     id="stop15" /><stop
     style="stop-color:#ffe3bd;stop-opacity:1;"
     offset="0.39484364"
     id="stop3" /><stop
     style="stop-color:#714500;stop-opacity:1;"
     offset="0.5612666"
     id="stop4" /><stop
     style="stop-color:#4e3306;stop-opacity:1;"
     offset="0.65109038"
     id="stop13" /><stop
     style="stop-color:#bb9445;stop-opacity:1;"
     offset="0.82988471"
     id="stop5" /><stop
     style="stop-color:#f7deb5;stop-opacity:1;"
     offset="1"
     id="stop2" /></linearGradient><rect
   x="525.91064"
   y="-276.21359"
   width="1020.8854"
   height="357.97281"
   id="rect1719" /><rect
   x="660.70288"
   y="-256.3262"
   width="996.57861"
   height="342.50485"
   id="rect1713" /><rect
   x="775"
   y="-89.0625"
   width="692.1875"
   height="218.75"
   id="rect1697" />
	
	
	
	
	
	
	
	
	
	
	
	
	
	
	
	
	
	
	
	
	
	
	
	
	
	
	
	
	
	
	
	
	
	
	
	
	
	
	
	
	
	
	
	
	
<linearGradient
   inkscape:collect="always"
   xlink:href="#linearGradient1"
   id="linearGradient15"
   x1="333.96448"
   y1="674.82324"
   x2="333.96448"
   y2="0.033288773"
   gradientUnits="userSpaceOnUse" /><linearGradient
   inkscape:collect="always"
   xlink:href="#linearGradient1"
   id="linearGradient56"
   x1="347.11227"
   y1="674.78998"
   x2="347.11227"
   y2="0.033288777"
   gradientUnits="userSpaceOnUse" /><linearGradient
   inkscape:collect="always"
   xlink:href="#linearGradient1"
   id="linearGradient57"
   gradientUnits="userSpaceOnUse"
   x1="333.96448"
   y1="674.82324"
   x2="333.96448"
   y2="0.21006547" /></defs><sodipodi:namedview
   pagecolor="#4d4d4d"
   bordercolor="#666666"
   borderopacity="1"
   objecttolerance="10"
   gridtolerance="10"
   guidetolerance="10"
   inkscape:pageopacity="0"
   inkscape:pageshadow="2"
   inkscape:window-width="1280"
   inkscape:window-height="737"
   id="namedview95"
   showgrid="false"
   showborder="false"
   inkscape:zoom="0.70710678"
   inkscape:cx="332.34019"
   inkscape:cy="345.06811"
   inkscape:window-x="1272"
   inkscape:window-y="32"
   inkscape:window-maximized="1"
   inkscape:current-layer="Layer_1"
   fit-margin-top="0"
   fit-margin-left="0"
   fit-margin-right="0"
   fit-margin-bottom="0"
   inkscape:document-rotation="0"
   inkscape:showpageshadow="2"
   inkscape:pagecheckerboard="true"
   inkscape:deskcolor="#000000" />

<g
   id="g75"><text
     xml:space="preserve"
     id="text1711"
     style="font-style:normal;font-variant:normal;font-weight:normal;font-stretch:normal;font-size:40px;line-height:1.25;font-family:'Modern Tetris';-inkscape-font-specification:'Modern Tetris';white-space:pre;shape-inside:url(#rect1713);display:inline;fill:#000000;fill-opacity:1;stroke:none"
     transform="translate(-2.4511709,-100.40412)" /><path
     d="M 0,0 V 675 H 675 V 0 Z M 47.966797,42.046875 H 627.05273 c 5.75929,0 10.44727,4.693092 10.44727,10.46875 V 251.57422 c 0,5.77661 -10.44922,10.46875 -10.44922,10.46875 H 257.63477 v 72.96289 h 200.70117 c 5.76409,0 10.45312,4.70816 10.45312,10.51367 v 117.85156 c 0,5.7747 -4.69,10.48047 -10.45312,10.48047 H 257.63477 v 148.64453 c 0,5.76411 -4.70815,10.45703 -10.51368,10.45703 H 47.980469 C 42.205777,632.95312 37.5,628.25923 37.5,622.49609 V 262.04297 256.39648 52.515625 c 0,-5.775658 4.692105,-10.46875 10.466797,-10.46875 z"
     style="opacity:0.995;fill:url(#linearGradient57);stroke-width:12.1175"
     id="path19" /><path
     d="M 47.966797,42.046875 C 42.192105,42.046875 37.5,46.739967 37.5,52.515625 v 203.880855 5.64649 360.45312 c 0,5.76314 4.705777,10.45703 10.480469,10.45703 H 247.12109 c 5.80553,0 10.51368,-4.69292 10.51368,-10.45703 V 473.85156 h 200.70117 c 5.76312,0 10.45312,-4.70577 10.45312,-10.48047 V 345.51953 c 0,-5.80551 -4.68903,-10.51367 -10.45312,-10.51367 H 257.63477 v -72.96289 h 369.41601 c 0,0 10.44922,-4.69214 10.44922,-10.46875 V 52.515625 c 0,-5.775658 -4.68798,-10.46875 -10.44727,-10.46875 z m 0,9.810547 H 627.05273 c 0.35165,0 0.625,0.322933 0.625,0.658203 V 251.57422 c 0,0.36802 -0.625,0.64258 -0.625,0.64258 H 247.82617 c 3e-5,30.46913 1e-5,61.66383 0,92.59765 106.61549,-1.4e-4 92.27257,1.2e-4 210.50781,0 0.33913,0 0.64258,0.32336 0.64258,0.68946 v 117.86718 c 0,0.35165 -0.30346,0.67188 -0.64258,0.67188 H 247.82617 c -3e-5,53.16112 -6e-5,106.37641 0,158.45312 0,0.33912 -0.32335,0.64453 -0.68945,0.64453 H 47.982422 c -0.351646,0 -0.673828,-0.30541 -0.673828,-0.64453 V 252.2168 52.515625 c 10e-7,-0.33624 0.337386,-0.658203 0.658203,-0.658203 z"
     style="fill:#ffffff;stroke:url(#linearGradient56);stroke-width:20;stroke-dasharray:none"
     id="path55" /><path
     d="m 47.966797,51.857422 c -0.320817,0 -0.658202,0.321963 -0.658203,0.658203 V 252.2168 622.49609 c 0,0.33912 0.322182,0.64453 0.673828,0.64453 H 247.13672 c 0.3661,0 0.68945,-0.30541 0.68945,-0.64453 -6e-5,-52.07671 -3e-5,-105.292 0,-158.45312 h 210.50781 c 0.33912,0 0.64258,-0.32023 0.64258,-0.67188 V 345.50391 c 0,-0.3661 -0.30345,-0.68946 -0.64258,-0.68946 -118.23524,1.2e-4 -103.89232,-1.4e-4 -210.50781,0 1e-5,-30.93382 3e-5,-62.12852 0,-92.59765 h 379.22656 c 0,0 0.625,-0.27456 0.625,-0.64258 V 52.515625 c 0,-0.33527 -0.27335,-0.658203 -0.625,-0.658203 z"
     style="opacity:0.995;fill:url(#linearGradient15);stroke-width:12.1175"
     id="path21" /><path
     d="M 47.966797,42.046875 C 42.192105,42.046875 37.5,46.739967 37.5,52.515625 v 203.880855 5.64649 360.45312 c 0,5.76314 4.705777,10.45703 10.480469,10.45703 H 247.12109 c 5.80553,0 10.51368,-4.69292 10.51368,-10.45703 V 473.85156 h 200.70117 c 5.76312,0 10.45312,-4.70577 10.45312,-10.48047 V 345.51953 c 0,-5.80551 -4.68903,-10.51367 -10.45312,-10.51367 H 257.63477 v -72.96289 h 369.41601 c 0,0 10.44922,-4.69214 10.44922,-10.46875 V 52.515625 c 0,-5.775658 -4.68798,-10.46875 -10.44727,-10.46875 z m 0,9.810547 H 627.05273 c 0.35165,0 0.625,0.322933 0.625,0.658203 V 251.57422 c 0,0.36802 -0.625,0.64258 -0.625,0.64258 H 247.82617 c 3e-5,30.46913 1e-5,61.66383 0,92.59765 106.61549,-1.4e-4 92.27257,1.2e-4 210.50781,0 0.33913,0 0.64258,0.32336 0.64258,0.68946 v 117.86718 c 0,0.35165 -0.30346,0.67188 -0.64258,0.67188 H 247.82617 c -3e-5,53.16112 -6e-5,106.37641 0,158.45312 0,0.33912 -0.32335,0.64453 -0.68945,0.64453 H 47.982422 c -0.351646,0 -0.673828,-0.30541 -0.673828,-0.64453 V 252.2168 52.515625 c 10e-7,-0.33624 0.337386,-0.658203 0.658203,-0.658203 z"
     style="fill:#fffbe5;stroke:#000000;stroke-width:0.048;fill-opacity:1"
     id="path20" /><g
     id="g21"
     style="fill:#fffbe5;fill-opacity:1"><path
       d="M 57.730568,243.50641 V 63.347973 H 139.95935 L 127.30877,96.104052 H 83.031723 v 32.756078 h 44.277047 l -12.65059,32.75608 H 83.031723 v 81.8902 z"
       style="font-style:normal;font-variant:normal;font-weight:normal;font-stretch:normal;font-size:136px;line-height:2;font-family:'Modern Tetris';-inkscape-font-specification:'Modern Tetris';white-space:pre;fill:#fffbe5;fill-opacity:1;stroke:#000000;stroke-width:0.0497504;stroke-dasharray:none;stroke-opacity:1"
       id="path1723" /><path
       d="m 174.4137,177.99425 -12.65058,-32.75608 -12.65058,32.75608 z M 92.184927,243.50641 161.76312,63.347973 231.34133,243.50641 h -31.62644 l -12.65061,-32.75608 h -50.60232 l -12.65059,32.75608 z"
       style="font-style:normal;font-variant:normal;font-weight:normal;font-stretch:normal;font-size:136px;line-height:2;font-family:'Modern Tetris';-inkscape-font-specification:'Modern Tetris';white-space:pre;fill:#fffbe5;fill-opacity:1;stroke:#000000;stroke-width:0.0497504;stroke-dasharray:none;stroke-opacity:1"
       id="path1725" /><path
       fill="#ffffff"
       d="m 238.64085,236.17194 -24.79516,-62.59975 -0.0604,-0.12139 -0.0471,-0.12235 c -0.0586,-0.13874 -0.10646,-0.2293 -0.12948,-0.30541 v -64.23563 h 25.03247 v 127.38453 z m 0,-140.20372 H 213.60834 V 64.187116 h 25.03251 z"
       id="path20-8"
       style="fill:#fffbe5;fill-opacity:1;stroke:#000000;stroke-width:0.0497504;stroke-dasharray:none;stroke-opacity:1" /><path
       id="polygon24-3"
       style="fill:#fffbe5;fill-opacity:1;stroke:#000000;stroke-width:0.0497504;stroke-dasharray:none;stroke-opacity:1"
       d="M 247.92578 64.171875 L 247.92578 243.0332 L 274.14062 243.0332 L 274.14062 86.509766 L 274.14062 83.056641 L 276.91992 83.056641 L 294.35547 83.056641 L 299.20703 83.056641 L 296.75977 88.236328 L 281.68555 120.32422 L 281.63477 120.44531 L 331.94141 243.0332 L 352.9375 243.0332 L 363.83789 243.0332 L 379.1543 243.0332 L 379.1543 99.421875 L 379.1543 95.96875 L 381.94336 95.96875 L 403.50391 95.96875 L 403.50391 64.171875 L 328.5625 64.171875 L 328.5625 95.96875 L 350.14648 95.96875 L 352.9375 95.96875 L 352.9375 99.421875 L 352.9375 216.4707 L 314.18555 122.03516 L 300.4668 122.03516 L 295.57617 122.03516 L 298.05859 116.82422 L 323.17578 64.171875 L 247.92578 64.171875 z " /><path
       fill="#ffffff"
       d="m 547.11458,242.58925 v 0 c -0.13695,-0.0144 -0.28415,-0.0144 -0.43369,-0.0144 -0.0869,0 -0.1471,0 -0.20863,-0.0164 l -0.29812,-0.0925 h -0.0498 v -34.13376 l 0.038,-0.13777 0.0234,-0.58094 v -0.29095 c 1.38116,1.31506 3.67885,3.30066 6.35952,3.30066 l 0.51847,0.0164 c 0.71549,0.0144 2.04929,0.0443 3.33316,0.0443 h 28.20412 0.30758 l 0.28414,-0.0607 c 1.48247,-0.39693 2.75462,-1.55784 3.49512,-3.16193 0.70298,-1.51256 0.86415,-3.26982 0.45771,-4.81321 -0.0869,-0.2765 -0.17435,-0.58094 -0.28414,-0.87093 l -0.0245,-0.1686 -0.19779,-0.45858 -40.82332,-99.51393 c 0,-0.0308 -1.5565,-3.867149 -1.5689,-7.716951 v -0.564561 c -0.0108,-1.024109 -0.0391,-3.162889 -0.0391,-3.836315 v -0.992317 l -0.0469,-0.106939 V 63.713116 h 1.25897 1.5182 66.75495 l -0.40879,1.222573 v 0.01541 l -0.085,0.183049 -0.43369,1.360341 -6.96278,21.176805 -0.0869,0.07707 -0.23433,0.718707 -0.6182,1.832414 c -1.24648,-2.368072 -3.19759,-3.666754 -5.80354,-3.803559 h -15.79354 l -6.14932,0.01445 h -0.18441 l -0.18452,0.03083 c -1.57974,0.260122 -2.9275,1.344926 -3.76685,2.978877 -0.78953,1.513523 -1.01291,3.42301 -0.57922,5.042509 0.0498,0.229293 0.1596,0.565524 0.27085,0.870927 l 0.0137,0.122353 0.20873,0.503866 3.03799,7.364332 35.52516,86.97028 0.45781,1.00773 c 0.0859,0.2765 0.27096,0.65705 0.43126,1.10022 1.03792,2.44611 2.44634,5.82191 2.55613,16.28845 l -0.0361,1.43645 c 0,0.0761 -0.0137,30.14715 -0.0137,30.29937 v 0.13777 0.10694 l -0.0244,0.19846 v 0.19846 1.31506 H 603.8038 c -19.48557,0.0144 -56.29618,0.0761 -56.29618,0.0761 h -0.28424 z"
       id="path16-3"
       style="fill:#fffbe5;fill-opacity:1;stroke:#000000;stroke-width:0.0497504;stroke-dasharray:none;stroke-opacity:1" /><path
       fill="#ffffff"
       d="m 536.70427,235.69891 -25.94238,-62.59976 -0.0635,-0.12139 -0.0498,-0.12235 c -0.0616,-0.13873 -0.11135,-0.22929 -0.13548,-0.3054 v -64.23564 h 26.19077 v 127.38454 z m 0,-140.203726 H 510.5135 V 63.71408 h 26.19077 z"
       id="path20-4"
       style="fill:#fffbe5;fill-opacity:1;stroke:#000000;stroke-width:0.0497504;stroke-dasharray:none;stroke-opacity:1" /><path
       id="polygon24-33"
       style="fill:#fffbe5;fill-opacity:1;stroke:#000000;stroke-width:0.0497504;stroke-dasharray:none;stroke-opacity:1"
       d="m 462.11991,88.236822 2.44553,-5.179314 h -4.85057 -17.43635 -2.77798 V 86.510384 243.03338 H 413.28412 V 64.172665 h 75.24998 l -25.11707,52.651545 -2.48134,5.21111 h 4.8895 13.7194 l 49.65252,120.99806 h -31.89618 l -50.30653,-122.5877 0.0498,-0.12235 z" /></g><g
     id="g1958"
     transform="matrix(0.9634141,0,0,0.9634141,-0.9895211,-95.192415)"
     style="fill:#fffbe5;fill-opacity:1;stroke:#000000;stroke-opacity:1;stroke-width:0.05163974;stroke-dasharray:none"><path
       id="polygon70"
       transform="translate(-197.13829,0.01500146)"
       d="m 281.832,688.342 h 20.87 v -23.615 h 23.632 v -20.872 h -23.632 v -23.63 h -20.87 z"
       style="stroke:#000000;stroke-opacity:1;stroke-width:0.05163974;stroke-dasharray:none;fill:#fffbe5;fill-opacity:1" /><path
       id="polygon72"
       transform="translate(-197.13829,0.01500146)"
       d="m 376.245,688.295 h 20.873 v -23.631 h 23.629 v -20.855 h -23.629 v -23.633 h -20.873 z"
       style="stroke:#000000;stroke-opacity:1;stroke-width:0.05163974;stroke-dasharray:none;fill:#fffbe5;fill-opacity:1" /><path
       id="polygon74"
       transform="translate(-197.13829,0.01500146)"
       d="m 279.246,617.48 h 23.504 v -44.516 h -20.855 v 23.552 h -23.647 v 44.611 h 20.998 z"
       style="stroke:#000000;stroke-opacity:1;stroke-width:0.05163974;stroke-dasharray:none;fill:#fffbe5;fill-opacity:1" /><path
       id="polygon76"
       transform="translate(-197.13829,0.01500146)"
       d="m 397.261,711.957 h 23.518 v -44.518 h -20.87 v 23.551 h -23.647 v 44.614 h 20.999 z"
       style="stroke:#000000;stroke-opacity:1;stroke-width:0.05163974;stroke-dasharray:none;fill:#fffbe5;fill-opacity:1" /><path
       id="polygon78"
       transform="translate(-197.13829,0.01500146)"
       d="m 328.935,641.159 h -23.52 v -44.502 h 20.871 v 23.536 h 23.648 v 44.614 h -20.999 z"
       style="stroke:#000000;stroke-opacity:1;stroke-width:0.05163974;stroke-dasharray:none;fill:#fffbe5;fill-opacity:1" /><path
       id="polygon80"
       transform="translate(-197.13829,0.01500146)"
       d="M 423.35,641.159 H 399.845 V 596.657 H 420.7 v 23.536 h 23.648 v 44.614 H 423.35 Z"
       style="stroke:#000000;stroke-opacity:1;stroke-width:0.05163974;stroke-dasharray:none;fill:#fffbe5;fill-opacity:1" /><path
       id="rect82"
       style="fill:#fffbe5;fill-opacity:1;stroke:#000000;stroke-opacity:1;stroke-width:0.05163974;stroke-dasharray:none"
       d="m 155.4117,478.83401 h 21.156 V 570.853 l -21.156,1e-5 z"
       sodipodi:nodetypes="ccccc" /><path
       id="rect84"
       d="m 61.077713,643.52203 h 20.997999 v 92.019 H 61.077713 Z"
       style="stroke:#000000;stroke-opacity:1;stroke-width:0.05163974;stroke-dasharray:none;fill:#fffbe5;fill-opacity:1" /><path
       id="rect86"
       d="m 84.707718,690.98999 h 44.583002 v 44.582 H 84.707718 Z"
       style="stroke:#000000;stroke-opacity:1;stroke-width:0.05163974;stroke-dasharray:none;fill:#fffbe5;fill-opacity:1" /><path
       id="polygon88"
       transform="translate(-197.13829,0.01500146)"
       d="m 349.917,735.461 0.064,-68.055 h -44.503 v 20.905 h 23.537 v 47.15 z"
       style="stroke:#000000;stroke-opacity:1;stroke-width:0.05163974;stroke-dasharray:none;fill:#fffbe5;fill-opacity:1" /><path
       id="polygon90"
       transform="translate(-197.13829,0.01500146)"
       d="m 444.458,667.295 0.064,68.057 -44.63,0.109 v -20.902 h 23.553 v -47.153 z"
       style="stroke:#000000;stroke-opacity:1;stroke-width:0.05163974;stroke-dasharray:none;fill:#fffbe5;fill-opacity:1" /><path
       id="polygon90-7"
       transform="matrix(0,1,1,0,-390.75453,96.58308)"
       d="m 423.445,667.406 21.013,-0.111 0.064,68.057 -44.63,0.109 v -20.902 h 23.553 z"
       style="stroke:#000000;stroke-opacity:1;stroke-width:0.05163974;stroke-dasharray:none;fill:#fffbe5;fill-opacity:1" /><path
       id="polygon70-7"
       transform="rotate(-90,287.63701,535.23607)"
       d="m 302.702,688.342 v -23.615 h 23.632 v -20.872 h -23.632 v -23.63 h -20.87 v 68.117 z"
       style="stroke:#000000;stroke-opacity:1;stroke-width:0.05163974;stroke-dasharray:none;fill:#fffbe5;fill-opacity:1" /></g></g></svg>
